<svg fill="#1E1E1E" width="180" height="180" xmlns="http://www.w3.org/2000/svg">
  <style>
    @media (prefers-color-scheme:dark){path{fill:#fff}}
  </style>
  <path fill-rule="evenodd" clip-rule="evenodd" d="M105.50024 22.224647c-9.59169-5.537563-21.40871-5.537563-31.000093 0L39.054693 42.689119c-9.59134 5.537556-15.499853 15.771412-15.499853 26.846523v40.928918c0 11.07542 5.908513 21.3092 15.499853 26.84652l35.445453 20.46446c9.591313 5.53732 21.408404 5.53732 31.000094 0l35.44507-20.46446c9.59131-5.53732 15.49985-15.7711 15.49985-26.84652V69.535642c0-11.075111-5.90854-21.308967-15.49985-26.846523zM34.112797 85.737639c-1.384445 2.397827-1.384445 5.352099 0 7.749927l24.781554 42.922974c1.38437 2.39783 3.942853 3.87496 6.711592 3.87496h49.563107c2.76905 0 5.3273-1.47713 6.71144-3.87496l24.78194-42.922974c1.38414-2.397828 1.38414-5.3521 0-7.749927l-24.78194-42.922893c-1.38414-2.397828-3.94239-3.874964-6.71144-3.874964H65.605944c-2.768739 0-5.327223 1.477059-6.711592 3.874964z" style="stroke-width:.774993"/>
</svg>
